HIERARCHY
ROOT Hips
{
	OFFSET -3.958830 18.904000 13.208200
	CHANNELS 6 Xposition Yposition Zposition Zrotation Yrotation Xrotation 
	JOINT LHipJoint
	{
		OFFSET 0.000000 0.000000 0.000000
		CHANNELS 3 Zrotation Yrotation Xrotation
		JOINT LeftUpLeg
		{
			OFFSET 1.800000 -1.400000 0.085000
			CHANNELS 3 Zrotation Yrotation Xrotation
			JOINT LeftLeg
			{
				OFFSET 2.215000 -6.000000 0.000000
				CHANNELS 3 Zrotation Yrotation Xrotation
				JOINT LeftFoot
				{
					OFFSET 2.500000 -6.900000 0.000000
					CHANNELS 3 Zrotation Yrotation Xrotation
					JOINT LeftToeBase
					{
						OFFSET 0.200000 -0.500000 1.950000
						CHANNELS 3 Zrotation Yrotation Xrotation
						End Site
						{
							OFFSET 0.000000 0.000000 0.000000
						}
					}
				}
			}
		}
	}
	JOINT RHipJoint
	{
		OFFSET 0.000000 0.000000 0.000000
		CHANNELS 3 Zrotation Yrotation Xrotation
		JOINT RightUpLeg
		{
			OFFSET -1.800000 -1.400000 0.085000
			CHANNELS 3 Zrotation Yrotation Xrotation
			JOINT RightLeg
			{
				OFFSET -2.215000 -6.000000 0.000000
				CHANNELS 3 Zrotation Yrotation Xrotation
				JOINT RightFoot
				{
					OFFSET -2.500000 -6.900000 0.000000
					CHANNELS 3 Zrotation Yrotation Xrotation
					JOINT RightToeBase
					{
						OFFSET -0.200000 -0.500000 1.950000
						CHANNELS 3 Zrotation Yrotation Xrotation
						End Site
						{
							OFFSET 0.000000 0.000000 0.000000
						}
					}
				}
			}
		}
	}
	JOINT LowerBack
	{
		OFFSET 0.000000 0.000000 0.000000
		CHANNELS 3 Zrotation Yrotation Xrotation
		JOINT Spine
		{
			OFFSET -0.087000 1.940000 -0.288900
			CHANNELS 3 Zrotation Yrotation Xrotation
			JOINT Spine1
			{
				OFFSET 0.000000 1.950000 0.060000
				CHANNELS 3 Zrotation Yrotation Xrotation
				JOINT Neck
				{
					OFFSET 0.000000 0.000000 0.000000
					CHANNELS 3 Zrotation Yrotation Xrotation
					JOINT Neck1
					{
						OFFSET 0.000000 1.600000 0.340000
						CHANNELS 3 Zrotation Yrotation Xrotation
						JOINT Head
						{
							OFFSET 0.000000 1.667000 -0.240000
							CHANNELS 3 Zrotation Yrotation Xrotation
							End Site
							{
								OFFSET 0.000000 0.000000 0.000000
							}
						}
					}
				}
				JOINT LeftShoulder
				{
					OFFSET 0.000000 0.000000 0.000000
					CHANNELS 3 Zrotation Yrotation Xrotation
					JOINT LeftArm
					{
						OFFSET 2.700000 1.550000 -0.730000
						CHANNELS 3 Zrotation Yrotation Xrotation
						JOINT LeftForeArm
						{
							OFFSET 5.450000 0.000000 0.000000
							CHANNELS 3 Zrotation Yrotation Xrotation
							JOINT LeftHand
							{
								OFFSET 3.450000 0.000000 0.000000
								CHANNELS 3 Zrotation Yrotation Xrotation
								JOINT LeftHandIndex1
								{
									OFFSET 0.750000 0.000000 0.000000
									CHANNELS 3 Zrotation Yrotation Xrotation
									End Site
									{
										OFFSET 0.000000 0.000000 0.000000
									}
								}
							}
						}
					}
				}
				JOINT RightShoulder
				{
					OFFSET 0.000000 0.000000 0.000000
					CHANNELS 3 Zrotation Yrotation Xrotation
					JOINT RightArm
					{
						OFFSET -2.700000 1.550000 -0.730000
						CHANNELS 3 Zrotation Yrotation Xrotation
						JOINT RightForeArm
						{
							OFFSET -5.450000 0.000000 0.000000
							CHANNELS 3 Zrotation Yrotation Xrotation
							JOINT RightHand
							{
								OFFSET -3.450000 0.000000 0.000000
								CHANNELS 3 Zrotation Yrotation Xrotation
								JOINT RightHandIndex1
								{
									OFFSET -0.750000 0.000000 0.000000
									CHANNELS 3 Zrotation Yrotation Xrotation
									End Site
									{
										OFFSET 0.000000 0.000000 0.000000
									}
								}
							}
						}
					}
				}
			}
		}
	}
}
MOTION
Frames: 6
Frame Time: 0.016667
-2.551070 18.224910 -3.370820 -6.432829 -23.678793 1.055430 -14.959012 11.076243 3.884288 -9.381233 -2.812835 -41.549614 -6.188084 5.883928 19.228468 -0.283747 3.156094 3.510315 -0.178890 -0.149180 -0.551840 18.551065 -11.832551 3.477667 1.902588 -2.495391 10.314759 4.452369 -6.636007 8.010076 -0.952784 -5.569176 2.484343 -0.237360 0.822570 0.629780 -4.104030 3.210109 -7.818222 7.414813 13.872912 16.370450 4.073642 15.138219 10.100957 2.729353 0.459691 -11.796248 6.124679 2.324470 44.763564 -0.846180 0.915830 -2.065660 -10.355473 1.188541 4.139539 -61.125402 13.787332 -14.495815 -40.833128 -21.529705 2.986522 -3.787827 2.974729 0.390030 0.329340 0.229740 0.478210 5.944693 8.843947 8.390235 61.643647 26.253282 8.848640 163.321170 64.673860 139.132489 2.074499 -1.385763 -0.076230 0.269880 0.228050 0.437380 
-2.631120 18.141040 -3.198370 -7.855652 -23.279509 3.269414 -14.849665 10.705480 3.705777 -8.328046 -2.800925 -39.894740 -7.171088 5.074318 14.477886 -0.365274 2.757410 3.719599 -0.284170 -0.259220 -0.667270 18.739517 -11.948065 3.488705 2.455484 -2.458858 10.560080 5.496780 -6.803418 7.278927 -0.908411 -5.805092 2.439355 -0.259220 0.967250 0.645550 -4.589987 4.046542 -7.505630 7.979375 14.606065 10.769933 4.932788 14.557916 11.146855 2.768280 1.304492 -11.294256 7.238149 1.910777 41.901765 -1.948420 0.810710 1.999180 -8.312697 2.781388 3.872527 -60.892326 13.246082 -12.650141 -42.091553 -20.121894 3.308320 -3.924443 2.999590 0.273280 0.463580 0.101140 0.482880 4.268265 5.581197 8.255248 62.747719 25.531189 10.529221 167.778738 65.446819 147.081264 1.975216 -1.511203 -0.114740 0.273550 0.299100 0.467270 
-2.698190 18.054740 -3.056180 -9.165814 -22.612525 4.075299 -14.711421 10.561286 3.523383 -7.518539 -2.549561 -37.502818 -7.476330 4.479872 11.583460 -0.413563 2.502889 3.831766 -0.250990 -0.232150 -0.647470 18.906263 -12.018692 3.607373 3.072178 -2.651159 12.051721 6.439941 -6.966552 6.063124 -0.991184 -5.997673 2.377558 -0.241930 0.966000 0.657070 -5.069644 4.487569 -7.390445 10.105392 14.668621 8.272017 3.901323 14.140634 12.176358 2.876626 1.257562 -11.211811 6.867456 1.970248 41.033725 -1.265550 0.564850 1.152320 -7.356143 2.961960 4.045991 -60.276762 12.744771 -11.898367 -43.354067 -21.120139 4.107979 -3.889274 3.053527 0.283240 0.458870 0.107060 0.495950 3.225268 4.621385 8.429583 62.487400 24.707036 10.134326 170.655644 66.028090 151.620609 1.946261 -1.567742 -0.110090 0.270530 0.282660 0.466080 
-2.764070 17.958730 -2.910440 -9.817520 -21.524167 3.890245 -14.709833 10.621740 3.366968 -7.552111 -2.328972 -35.436965 -6.626619 4.181587 11.004162 -0.442757 2.362375 3.878561 -0.251600 -0.239230 -0.639620 18.912450 -11.962946 3.729081 3.432485 -2.844348 14.286840 7.438844 -7.202731 5.018506 -1.089002 -6.188613 2.315626 -0.259380 0.934260 0.649920 -5.074193 4.393684 -7.364342 10.274564 14.566654 7.583445 4.205413 13.969245 12.322813 2.724392 1.225166 -11.660662 6.599264 1.757925 40.854862 -0.428720 0.335330 -0.494400 -6.669621 2.468195 4.607971 -60.161170 13.265042 -12.027968 -45.874504 -22.499191 5.031292 -3.821285 3.078864 0.337650 0.419660 0.137680 0.482770 2.885734 4.892045 8.690494 60.173814 22.458144 7.070803 171.496793 66.641059 152.563390 1.961071 -1.531807 -0.113390 0.275400 0.290040 0.449170 
-2.844210 17.861020 -2.785760 -9.271859 -19.797164 2.864544 -14.838211 10.753430 3.291406 -8.279525 -2.429542 -33.155999 -6.153113 4.036640 10.715414 -0.452963 2.276415 3.912605 -0.209770 -0.194150 -0.584700 18.788307 -11.793227 3.765825 3.462558 -2.911089 16.332341 8.250292 -7.454042 4.970119 -1.176692 -6.357557 2.250651 -0.241230 0.879780 0.630630 -4.694606 3.916170 -7.365301 7.974706 13.950247 7.958661 5.130806 13.380514 12.479668 2.713003 1.270696 -12.035329 6.506324 1.940570 40.251418 0.095140 0.664340 -2.629850 -7.566160 1.234366 5.133494 -59.067300 13.803422 -12.372357 -48.309034 -24.582014 6.123283 -3.728780 3.118322 0.389460 0.368440 0.183330 0.484350 3.978693 6.157693 8.709650 57.581751 21.986741 6.194045 175.970791 65.609388 158.291221 1.991189 -1.578178 -0.118950 0.278290 0.246490 0.431710 
-2.932360 17.758630 -2.660640 -7.842291 -18.053640 1.242309 -15.092193 10.955570 3.267301 -9.431447 -2.674823 -30.567215 -6.250103 4.034786 10.339599 -0.423481 2.278670 3.897789 -0.173010 -0.162340 -0.539390 18.546625 -11.454214 3.745696 3.056667 -2.845137 18.760199 9.139452 -7.727863 4.763974 -1.273885 -6.545080 2.162035 -0.248950 0.814630 0.649800 -3.969359 2.994551 -7.361067 3.516472 13.349320 8.929714 7.125147 12.819892 12.516791 2.761625 1.083776 -12.523876 5.967064 2.444621 39.875843 0.357090 1.161080 -5.063050 -9.086691 -0.140390 5.590404 -58.029588 14.769606 -13.217101 -50.432762 -26.267769 6.859000 -3.660442 3.182932 0.436410 0.314970 0.238820 0.472570 5.686608 8.144313 8.920681 54.129411 21.222011 6.416286 -179.150523 61.176277 164.029622 2.045892 -1.648344 -0.088070 0.246450 0.226980 0.417610 
